<?xml version="1.0" standalone="no"?>
<!DOCTYPE svg PUBLIC "-//W3C//DTD SVG 20010904//EN"
 "http://www.w3.org/TR/2001/REC-SVG-20010904/DTD/svg10.dtd">
<svg version="1.0" xmlns="http://www.w3.org/2000/svg"
 width="3323.000000pt" height="929.000000pt" viewBox="0 0 3323.000000 929.000000"
 preserveAspectRatio="xMidYMid meet">

<g transform="translate(0.000000,929.000000) scale(0.100000,-0.100000)"
fill="#ffffff" stroke="none">
<path d="M4460 9109 c-255 -20 -561 -86 -805 -174 -291 -103 -646 -304 -895
-504 -135 -108 -353 -326 -461 -461 -191 -238 -367 -543 -482 -835 -67 -171
-109 -315 -147 -505 -47 -233 -55 -331 -54 -625 0 -226 4 -294 23 -415 88
-577 308 -1080 664 -1520 87 -107 296 -319 407 -412 403 -339 871 -564 1390
-668 227 -45 333 -55 605 -55 272 0 378 10 605 55 519 104 987 329 1390 668
111 93 320 305 407 412 356 440 576 943 664 1520 19 121 23 189 23 415 1 294
-7 392 -54 625 -38 190 -80 334 -147 505 -115 292 -291 597 -482 835 -106 132
-335 361 -466 465 -247 198 -603 398 -890 500 -408 146 -867 208 -1295 174z
m305 -727 c50 -26 90 -66 109 -114 41 -97 -4 -205 -109 -261 -31 -17 -57 -22
-120 -22 -63 0 -89 5 -120 22 -184 98 -158 328 45 394 43 14 152 4 195 -19z
m-662 -352 c100 -50 213 -203 273 -366 23 -63 30 -73 55 -78 16 -3 42 -3 58 0
l29 6 7 -183 c3 -101 5 -227 3 -279 l-3 -95 -95 -3 c-114 -4 -173 9 -222 48
-33 27 -37 28 -50 13 -22 -27 -74 -43 -140 -43 -70 0 -107 14 -124 47 -9 20
-12 21 -26 7 -22 -22 -82 -33 -124 -24 -22 5 -54 25 -78 49 l-41 40 -40 -14
c-49 -17 -78 -18 -130 -4 -38 11 -117 78 -126 108 -4 11 -9 12 -28 1 -61 -32
-211 19 -235 81 -10 29 -11 29 -96 29 -47 0 -112 5 -145 10 -85 14 -234 91
-306 158 -65 59 -114 134 -106 157 5 11 64 14 354 17 l348 3 60 26 c33 14 129
69 213 121 239 151 383 200 572 195 78 -2 103 -6 143 -27z m1412 11 c128 -26
223 -69 397 -179 84 -52 180 -107 213 -121 l60 -26 348 -3 c290 -3 349 -6 354
-17 8 -23 -41 -98 -106 -157 -72 -67 -221 -144 -306 -158 -33 -5 -98 -10 -145
-10 -85 0 -86 0 -96 -29 -24 -62 -174 -113 -235 -81 -19 11 -24 10 -28 -1 -9
-30 -88 -97 -126 -108 -52 -14 -81 -13 -130 4 l-40 14 -41 -40 c-24 -24 -56
-44 -78 -49 -42 -9 -102 2 -124 24 -14 14 -17 13 -26 -7 -17 -33 -54 -47 -124
-47 -66 0 -118 16 -140 43 -13 15 -17 14 -50 -13 -49 -39 -108 -52 -222 -48
l-95 3 -3 95 c-2 52 0 178 3 278 l7 184 34 -6 c60 -12 81 0 100 57 47 147 172
328 258 375 86 47 191 54 341 23z m-765 -494 c0 -228 -3 -591 -7 -807 l-6
-393 -85 6 c-46 4 -86 8 -88 9 -1 2 -6 362 -10 801 l-7 797 101 0 102 0 0
-413z m-431 -692 c71 -36 141 -153 127 -210 -18 -72 -223 -74 -321 -4 -41 29
-44 30 -196 35 -182 6 -202 0 -207 -60 -3 -33 1 -42 38 -76 71 -66 141 -95
295 -124 132 -24 416 -60 677 -86 159 -15 266 -42 374 -95 285 -138 365 -311
229 -494 -24 -31 -62 -76 -85 -100 -43 -44 -177 -136 -260 -179 l-45 -24 -87
42 -88 41 1 42 0 42 109 53 c125 60 214 133 229 188 18 66 -24 149 -99 196
-64 39 -127 52 -470 98 -600 80 -762 132 -951 307 -66 62 -89 104 -89 165 1
97 54 157 185 204 86 31 173 38 317 25 106 -9 122 -8 170 9 64 23 110 25 147
5z m813 -5 c48 -18 61 -19 186 -8 190 15 309 -9 414 -83 56 -40 84 -145 58
-214 -15 -40 -93 -118 -173 -173 -123 -84 -224 -128 -352 -152 -59 -11 -61
-11 -147 29 -90 42 -245 91 -287 91 -49 0 -13 9 103 25 66 9 192 30 280 46
179 33 254 63 325 128 38 35 42 43 39 77 -5 60 -25 66 -205 61 -146 -5 -153
-6 -187 -32 -73 -56 -229 -74 -293 -35 -28 17 -33 26 -33 58 0 65 54 147 120
183 45 24 88 24 152 -1z m-807 -701 c77 -11 141 -21 142 -23 2 -1 -49 -44
-113 -95 -168 -135 -208 -209 -148 -281 33 -38 96 -71 194 -100 85 -26 367
-148 512 -222 73 -37 110 -64 149 -106 75 -82 93 -128 86 -216 -16 -187 -92
-293 -280 -392 l-68 -35 -34 28 c-30 25 -34 34 -34 80 l-1 51 70 47 c79 52
136 114 145 156 8 35 -22 103 -63 142 -45 43 -231 150 -343 197 -57 24 -159
67 -227 96 -272 116 -402 236 -402 370 1 64 25 116 89 186 45 49 161 138 180
138 3 0 69 -9 146 -21z m399 -56 l29 -5 -6 -276 c-4 -151 -8 -277 -10 -279 -2
-2 -38 12 -79 31 l-76 34 -6 79 c-3 43 -8 158 -12 256 l-6 179 68 -7 c38 -3
82 -9 98 -12z m-282 -700 c45 -20 85 -38 87 -40 2 -1 -19 -27 -47 -57 -104
-114 -129 -219 -74 -307 31 -48 156 -169 218 -210 21 -15 77 -51 124 -81 162
-104 260 -217 260 -301 0 -81 -88 -210 -200 -292 -26 -19 -50 -35 -53 -35 -3
0 -15 15 -26 34 -33 52 -28 86 20 131 49 48 69 84 69 123 0 38 -69 104 -260
247 -189 141 -345 296 -390 387 -42 86 -39 136 15 244 34 70 140 194 165 194
5 0 46 -17 92 -37z m276 -213 c2 -52 0 -172 -3 -267 l-7 -172 -63 42 -62 41
-7 135 c-3 74 -6 192 -6 263 l0 129 73 -38 72 -38 3 -95z m-213 -552 c38 -28
44 -38 45 -69 0 -28 -8 -44 -40 -77 -21 -23 -45 -60 -51 -83 -18 -60 5 -95
136 -204 209 -174 220 -193 220 -375 0 -120 -3 -140 -22 -181 -13 -25 -37 -58
-54 -75 l-31 -29 4 158 5 158 -188 180 c-220 212 -255 263 -246 355 7 68 46
141 116 216 29 32 55 58 57 58 3 0 25 -15 49 -32z m168 -132 c16 -12 17 -31
15 -189 l-3 -175 -53 49 -52 48 -7 172 -6 173 44 -33 c24 -17 52 -38 62 -45z
m-110 -568 c4 -29 9 -124 13 -211 l7 -158 59 -65 c54 -60 58 -68 58 -114 0
-27 -4 -51 -8 -54 -10 -6 -93 49 -140 93 -65 61 -132 241 -132 356 0 95 64
205 120 205 13 0 19 -12 23 -52z m126 -163 c1 -55 -2 -143 -5 -196 l-7 -96
-39 43 -39 42 -9 159 c-5 87 -10 178 -10 201 l0 44 54 -49 55 -48 0 -100z
m-21 -475 c2 -13 1 -48 -3 -78 -6 -51 -7 -53 -25 -37 -18 16 -21 29 -36 140
l-7 50 34 -26 c19 -15 36 -37 37 -49z" fill="#f80114"/>
<path d="M13980 7130 l0 -1190 185 0 185 0 0 1190 0 1190 -185 0 -185 0 0
-1190z" fill="#ffffff"/>
<path d="M15124 8022 l-181 -237 139 -3 139 -3 249 237 c138 130 250 238 250
240 0 2 -93 4 -207 4 l-208 -1 -181 -237z" fill="#ffffff"/>
<path d="M12805 8233 c-697 -21 -1215 -357 -1361 -883 -32 -117 -44 -357 -24
-491 64 -443 381 -764 880 -893 179 -46 230 -51 535 -51 252 1 307 4 415 22
117 21 283 63 296 76 3 3 -11 58 -32 122 -34 103 -41 116 -59 112 -11 -3 -65
-17 -120 -31 -300 -79 -692 -71 -947 20 -296 106 -485 303 -560 584 -32 119
-32 365 0 485 93 347 357 567 778 652 68 13 137 17 289 17 210 0 322 -13 463
-56 118 -35 103 -44 150 84 23 62 42 118 42 125 0 16 -116 50 -250 75 -108 19
-354 35 -495 31z" fill="#ffffff"/>
<path d="M18322 8174 c-70 -35 -102 -82 -102 -151 0 -65 10 -91 51 -130 87
-86 283 -81 366 9 77 82 49 215 -56 270 -75 39 -183 40 -259 2z" fill="#ffffff"/>
<path d="M16860 7589 c-212 -15 -402 -98 -527 -231 -61 -66 -59 -69 -68 90
l-7 112 -170 0 -170 0 6 -37 c4 -21 10 -386 13 -810 l5 -773 183 0 184 0 3
523 3 523 38 76 c64 131 177 218 335 259 231 59 469 -25 551 -194 53 -109 54
-116 58 -669 l5 -518 184 0 185 0 -3 568 -3 567 -28 81 c-101 301 -385 459
-777 433z" fill="#ffffff"/>
<path d="M20070 7589 c-283 -15 -527 -105 -706 -260 -243 -210 -330 -537 -229
-857 82 -257 309 -448 631 -529 104 -27 120 -28 349 -28 190 0 259 4 330 18
108 21 234 57 241 68 2 5 -10 58 -27 119 -26 89 -36 110 -48 106 -329 -105
-617 -99 -836 17 -132 70 -242 208 -280 353 -19 71 -21 220 -5 289 38 158 156
307 301 378 133 65 209 80 404 81 177 0 256 -12 364 -53 28 -10 53 -16 56 -11
13 21 83 225 80 231 -6 9 -139 44 -225 60 -96 17 -269 25 -400 18z" fill="#ffffff"/>
<path d="M21496 7575 c-49 -8 -122 -24 -163 -35 -84 -23 -231 -78 -237 -88 -3
-6 69 -186 80 -201 2 -2 36 10 76 27 206 85 489 113 651 65 152 -45 230 -127
256 -268 21 -112 38 -101 -176 -108 -675 -22 -1049 -245 -1031 -615 3 -66 10
-101 30 -144 53 -115 176 -216 322 -265 77 -26 91 -27 271 -27 179 0 195 1
280 28 111 34 202 81 282 146 l61 50 6 -28 c3 -15 8 -47 11 -72 3 -25 8 -57
11 -72 l6 -28 170 0 171 0 -7 43 c-20 122 -26 248 -26 617 0 223 -5 434 -10
470 -40 255 -191 417 -457 491 -66 18 -111 22 -283 25 -145 2 -231 -1 -294
-11z m682 -973 c-3 -147 -5 -162 -31 -213 -36 -74 -129 -162 -209 -198 -89
-40 -160 -55 -263 -55 -149 0 -252 44 -312 136 -39 59 -45 172 -13 241 54 114
215 196 445 226 121 16 140 18 269 19 l118 2 -4 -158z" fill="#ffffff"/>
<path d="M14970 6750 l0 -810 185 0 185 0 0 810 0 810 -185 0 -185 0 0 -810z" fill="#ffffff"/>
<path d="M18260 6750 l0 -810 185 0 185 0 0 810 0 810 -185 0 -185 0 0 -810z" fill="#ffffff"/>
<path d="M814 6888 c-143 -97 -341 -495 -425 -856 -52 -224 -123 -651 -155
-931 -23 -203 -17 -698 16 -1286 25 -441 36 -508 111 -656 269 -530 741 -1146
1290 -1684 269 -263 507 -463 621 -521 38 -19 48 -30 52 -56 3 -18 9 -158 13
-311 l8 -279 92 -58 c162 -101 345 -166 540 -189 126 -15 442 -16 528 -1 39 7
109 29 157 50 84 36 270 152 298 185 11 13 -2 88 -85 488 -54 260 -99 473
-100 475 -1 1 -35 -13 -75 -33 -41 -19 -75 -34 -76 -32 -1 1 7 88 17 192 25
263 25 434 -1 516 -54 175 -230 384 -610 723 -155 138 -482 412 -645 541 -55
44 -142 122 -194 175 -157 159 -483 536 -641 741 -88 114 -316 341 -420 418
-110 82 -180 115 -247 115 -67 1 -99 -22 -139 -101 -44 -85 -59 -197 -51 -383
7 -167 29 -271 84 -400 75 -175 175 -325 359 -543 293 -347 287 -333 375 -767
56 -275 79 -361 119 -440 16 -30 114 -185 219 -344 106 -158 189 -291 185
-295 -15 -14 -375 390 -461 519 -105 156 -158 283 -247 593 -103 357 -93 337
-346 678 -371 497 -437 623 -470 889 -23 193 -5 359 61 535 78 212 211 274
439 205 33 -10 60 -15 60 -12 0 4 -16 45 -35 92 -39 95 -41 121 -20 200 26 96
40 313 27 423 -13 113 -34 164 -77 186 l-30 15 40 41 c23 22 55 65 73 96 29
52 32 66 47 229 19 218 19 508 0 613 -12 72 -57 182 -87 217 -59 69 -120 77
-194 28z" fill="#ffffff"/>
<path d="M8394 6898 c-42 -32 -52 -46 -85 -115 -51 -104 -62 -202 -56 -478 8
-334 20 -435 60 -505 17 -30 49 -73 72 -95 l40 -41 -30 -15 c-43 -22 -64 -73
-77 -186 -13 -110 1 -327 27 -423 21 -79 19 -105 -20 -200 -19 -47 -35 -88
-35 -92 0 -3 27 2 60 12 228 69 361 7 439 -205 66 -176 84 -342 61 -535 -33
-266 -99 -392 -470 -889 -253 -341 -243 -321 -346 -678 -89 -310 -142 -437
-247 -593 -86 -129 -446 -533 -461 -519 -4 4 79 137 185 295 105 159 203 314
219 344 40 79 63 165 119 440 88 434 82 420 375 767 185 219 292 381 362 550
53 128 74 230 81 393 8 186 -7 298 -51 383 -40 79 -72 102 -139 101 -67 0
-137 -33 -247 -115 -104 -77 -332 -304 -420 -418 -158 -205 -484 -582 -641
-741 -52 -53 -139 -131 -194 -175 -465 -367 -976 -829 -1106 -1000 -70 -92
-128 -193 -149 -264 -26 -82 -26 -253 -1 -516 10 -104 18 -191 17 -192 -1 -2
-35 13 -76 32 -40 20 -74 34 -75 33 -3 -6 -195 -933 -195 -945 0 -15 96 -88
185 -141 96 -56 198 -97 281 -112 85 -15 401 -14 527 1 195 23 378 88 540 189
l92 58 8 279 c4 153 10 293 13 311 4 26 14 37 52 56 216 110 782 649 1172
1116 386 462 776 1075 808 1270 33 200 71 937 73 1410 1 281 -33 574 -117
1017 -73 391 -133 576 -265 834 -136 262 -269 371 -365 297z" fill="#ffffff"/>
<path d="M11340 2450 l0 -2260 1685 0 1685 0 0 430 0 430 -1075 0 -1075 0 0
1830 0 1830 -610 0 -610 0 0 -2260z" fill="#c40003"/>
<path d="M21320 2450 l0 -2260 1685 0 1685 0 0 430 0 430 -1075 0 -1075 0 0
1830 0 1830 -610 0 -610 0 0 -2260z" fill="#c40003"/>
<path d="M16675 3530 c-448 -33 -877 -127 -1177 -258 l-47 -21 23 -68 c13 -37
63 -183 111 -323 48 -140 88 -256 89 -257 1 -1 42 15 92 36 179 77 404 140
631 176 137 22 447 31 567 16 316 -40 489 -171 504 -383 l5 -68 -49 0 c-123
-1 -477 -21 -601 -35 -495 -55 -896 -179 -1172 -362 -174 -116 -333 -299 -402
-462 -54 -129 -73 -230 -73 -391 1 -115 5 -161 22 -221 142 -522 699 -834
1390 -781 381 30 672 138 906 337 37 31 73 55 80 52 7 -3 27 -76 46 -166 l34
-161 549 0 549 0 -6 24 c-37 149 -48 399 -56 1296 -7 833 -8 879 -28 968 -93
416 -305 692 -667 867 -173 83 -366 136 -620 170 -143 19 -529 27 -700 15z
m833 -2032 c-5 -273 -8 -287 -80 -390 -116 -165 -337 -268 -573 -268 -275 0
-442 114 -478 324 -21 125 18 242 112 336 151 151 464 234 894 239 l129 1 -4
-242z" fill="#c40003"/>
<path d="M25273 2368 c4 -1204 1 -1144 63 -1363 93 -330 297 -586 581 -729
304 -152 720 -195 1115 -115 313 63 626 239 789 443 43 53 68 69 70 44 0 -7
12 -112 27 -233 l27 -220 529 -3 528 -2 -6 112 c-21 350 -26 708 -26 1876 l0
1292 -610 0 -610 0 0 -982 c0 -571 -5 -1014 -10 -1058 -28 -212 -221 -406
-465 -465 -89 -22 -257 -22 -349 -1 -187 44 -331 186 -390 386 -44 146 -46
199 -46 1183 l0 937 -610 0 -611 0 4 -1102z" fill="#c40003"/>
<path d="M29780 3070 l0 -400 861 0 c694 0 860 -2 857 -13 -2 -7 -79 -82 -173
-167 -291 -266 -411 -387 -1052 -1058 l-623 -653 0 -295 0 -294 1700 0 1700 0
0 405 0 405 -940 0 c-530 0 -940 4 -940 9 0 5 42 44 93 87 167 142 511 489
1124 1134 l603 634 0 303 0 303 -1605 0 -1605 0 0 -400z" fill="#c40003"/>
</g>
</svg>
